<?xml version="1.0" encoding="UTF-8" standalone="no"?>
<!-- Created with Inkscape (http://www.inkscape.org/) -->

<svg
   width="210mm"
   height="297mm"
   viewBox="0 0 210 297"
   version="1.1"
   id="svg1"
   sodipodi:docname="overview.svg"
   xml:space="preserve"
   inkscape:version="1.3 (0e150ed, 2023-07-21)"
   inkscape:export-filename="overview.pdf"
   inkscape:export-xdpi="96"
   inkscape:export-ydpi="96"
   xmlns:inkscape="http://www.inkscape.org/namespaces/inkscape"
   xmlns:sodipodi="http://sodipodi.sourceforge.net/DTD/sodipodi-0.dtd"
   xmlns="http://www.w3.org/2000/svg"
   xmlns:svg="http://www.w3.org/2000/svg"><sodipodi:namedview
     id="namedview1"
     pagecolor="#ffffff"
     bordercolor="#000000"
     borderopacity="0.25"
     inkscape:showpageshadow="2"
     inkscape:pageopacity="0.0"
     inkscape:pagecheckerboard="0"
     inkscape:deskcolor="#d1d1d1"
     inkscape:document-units="mm"
     inkscape:zoom="0.91344246"
     inkscape:cx="146.6978"
     inkscape:cy="505.2316"
     inkscape:window-width="2560"
     inkscape:window-height="1372"
     inkscape:window-x="1440"
     inkscape:window-y="0"
     inkscape:window-maximized="1"
     inkscape:current-layer="layer1" /><defs
     id="defs1"><inkscape:path-effect
       effect="bspline"
       id="path-effect16"
       is_visible="true"
       lpeversion="1.3"
       weight="33.333333"
       steps="2"
       helper_size="0"
       apply_no_weight="true"
       apply_with_weight="true"
       only_selected="false"
       uniform="false" /><inkscape:path-effect
       effect="bspline"
       id="path-effect15"
       is_visible="true"
       lpeversion="1.3"
       weight="33.333333"
       steps="2"
       helper_size="0"
       apply_no_weight="true"
       apply_with_weight="true"
       only_selected="false"
       uniform="false" /><marker
       style="overflow:visible"
       id="RoundedArrow"
       refX="0"
       refY="0"
       orient="auto-start-reverse"
       inkscape:stockid="Rounded arrow"
       markerWidth="1"
       markerHeight="1"
       viewBox="0 0 1 1"
       inkscape:isstock="true"
       inkscape:collect="always"
       preserveAspectRatio="xMidYMid"><path
         transform="scale(0.7)"
         d="m -0.21114562,-4.1055728 6.42229122,3.21114561 a 1,1 90 0 1 0,1.78885438 L -0.21114562,4.1055728 A 1.236068,1.236068 31.717474 0 1 -2,3 v -6 a 1.236068,1.236068 148.28253 0 1 1.78885438,-1.1055728 z"
         style="fill:context-stroke;fill-rule:evenodd;stroke:none"
         id="path8" /></marker><inkscape:path-effect
       effect="bspline"
       id="path-effect14"
       is_visible="true"
       lpeversion="1.3"
       weight="33.333333"
       steps="2"
       helper_size="0"
       apply_no_weight="true"
       apply_with_weight="true"
       only_selected="false"
       uniform="false" /><marker
       style="overflow:visible"
       id="RoundedArrow-7"
       refX="0"
       refY="0"
       orient="auto-start-reverse"
       inkscape:stockid="Rounded arrow"
       markerWidth="1"
       markerHeight="1"
       viewBox="0 0 1 1"
       inkscape:isstock="true"
       inkscape:collect="always"
       preserveAspectRatio="xMidYMid"><path
         transform="scale(0.7)"
         d="m -0.21114562,-4.1055728 6.42229122,3.21114561 a 1,1 90 0 1 0,1.78885438 L -0.21114562,4.1055728 A 1.236068,1.236068 31.717474 0 1 -2,3 v -6 a 1.236068,1.236068 148.28253 0 1 1.78885438,-1.1055728 z"
         style="fill:context-stroke;fill-rule:evenodd;stroke:none"
         id="path8-5" /></marker><inkscape:path-effect
       effect="bspline"
       id="path-effect14-3"
       is_visible="true"
       lpeversion="1.3"
       weight="33.333333"
       steps="2"
       helper_size="0"
       apply_no_weight="true"
       apply_with_weight="true"
       only_selected="false"
       uniform="false" /><marker
       style="overflow:visible"
       id="RoundedArrow-8"
       refX="0"
       refY="0"
       orient="auto-start-reverse"
       inkscape:stockid="Rounded arrow"
       markerWidth="1"
       markerHeight="1"
       viewBox="0 0 1 1"
       inkscape:isstock="true"
       inkscape:collect="always"
       preserveAspectRatio="xMidYMid"><path
         transform="scale(0.7)"
         d="m -0.21114562,-4.1055728 6.42229122,3.21114561 a 1,1 90 0 1 0,1.78885438 L -0.21114562,4.1055728 A 1.236068,1.236068 31.717474 0 1 -2,3 v -6 a 1.236068,1.236068 148.28253 0 1 1.78885438,-1.1055728 z"
         style="fill:context-stroke;fill-rule:evenodd;stroke:none"
         id="path8-9" /></marker><marker
       style="overflow:visible"
       id="RoundedArrow-8-9"
       refX="0"
       refY="0"
       orient="auto-start-reverse"
       inkscape:stockid="Rounded arrow"
       markerWidth="1"
       markerHeight="1"
       viewBox="0 0 1 1"
       inkscape:isstock="true"
       inkscape:collect="always"
       preserveAspectRatio="xMidYMid"><path
         transform="scale(0.7)"
         d="m -0.21114562,-4.1055728 6.42229122,3.21114561 a 1,1 90 0 1 0,1.78885438 L -0.21114562,4.1055728 A 1.236068,1.236068 31.717474 0 1 -2,3 v -6 a 1.236068,1.236068 148.28253 0 1 1.78885438,-1.1055728 z"
         style="fill:context-stroke;fill-rule:evenodd;stroke:none"
         id="path8-9-8" /></marker><marker
       style="overflow:visible"
       id="RoundedArrow-8-0"
       refX="0"
       refY="0"
       orient="auto-start-reverse"
       inkscape:stockid="Rounded arrow"
       markerWidth="1"
       markerHeight="1"
       viewBox="0 0 1 1"
       inkscape:isstock="true"
       inkscape:collect="always"
       preserveAspectRatio="xMidYMid"><path
         transform="scale(0.7)"
         d="m -0.21114562,-4.1055728 6.42229122,3.21114561 a 1,1 90 0 1 0,1.78885438 L -0.21114562,4.1055728 A 1.236068,1.236068 31.717474 0 1 -2,3 v -6 a 1.236068,1.236068 148.28253 0 1 1.78885438,-1.1055728 z"
         style="fill:context-stroke;fill-rule:evenodd;stroke:none"
         id="path8-9-6" /></marker></defs><g
     inkscape:label="Layer 1"
     inkscape:groupmode="layer"
     id="layer1"><path
       style="fill:none;fill-opacity:1;fill-rule:evenodd;stroke:#c0bfbc;stroke-width:0.787426;stroke-miterlimit:3.2;stroke-dasharray:none;stroke-dashoffset:0;stroke-opacity:1;marker-end:url(#RoundedArrow)"
       d="m 126.90962,66.81798 c 9.25883,3.045908 18.51766,6.091816 23.87014,12.398752 5.35247,6.306936 6.79854,15.874517 5.74669,22.293328 -1.05184,6.41882 -4.60148,9.68855 -8.15119,12.95834"
       id="path14"
       inkscape:path-effect="#path-effect14"
       inkscape:original-d="m 126.90962,66.81798 c 9.25883,3.045907 18.51766,6.091817 27.77649,9.137724 1.44613,9.567963 2.89219,19.135545 4.33828,28.703316 -3.54978,3.26986 -7.09942,6.53959 -10.64913,9.80938"
       transform="matrix(0.88813385,0,0,0.88981275,15.881651,15.098372)" /><rect
       style="fill:#f6f5f4;fill-opacity:1;fill-rule:evenodd;stroke:#c0bfbc;stroke-width:0.7;stroke-miterlimit:3.2;stroke-dasharray:none;stroke-dashoffset:0;stroke-opacity:1"
       id="rect1"
       width="76.290901"
       height="67.41198"
       x="63.318737"
       y="33.111992"
       ry="6.2149467"
       rx="5.9911723" /><rect
       style="fill:#f6f5f4;fill-opacity:1;fill-rule:evenodd;stroke:#c0bfbc;stroke-width:0.7;stroke-miterlimit:3.2;stroke-dasharray:none;stroke-dashoffset:0;stroke-opacity:1"
       id="rect1-5"
       width="76.290901"
       height="67.41198"
       x="16.805836"
       y="152.24792"
       ry="6.2149467"
       rx="5.9911723" /><rect
       style="fill:#f6f5f4;fill-opacity:1;fill-rule:evenodd;stroke:#c0bfbc;stroke-width:0.7;stroke-miterlimit:3.2;stroke-dasharray:none;stroke-dashoffset:0;stroke-opacity:1"
       id="rect1-5-8"
       width="76.290901"
       height="67.41198"
       x="107.65052"
       y="218.19269"
       ry="6.2149467"
       rx="5.9911723" /><path
       d="m 118.47637,126.7946 c 0,3.6519 2.96286,6.61475 6.61475,6.61475 h 16.90436 c 3.24766,0 5.87978,-2.63212 5.87978,-5.87977 0,-2.84343 -2.02117,-5.21831 -4.70382,-5.76035 0.18833,-0.49151 0.29399,-1.02896 0.29399,-1.58938 0,-2.4346 -1.97524,-4.40985 -4.40984,-4.40985 -0.90493,0 -1.75015,0.27561 -2.44837,0.74417 -1.27242,-2.20493 -3.6473,-3.68407 -6.37129,-3.68407 -4.06072,0 -7.34973,3.28901 -7.34973,7.34975 0,0.12403 0.005,0.24806 0.009,0.37208 -2.5724,0.90494 -4.41902,3.35791 -4.41902,6.24267 z"
       id="path1"
       style="fill:#99c1f1;stroke:#1a5fb4;stroke-width:1;stroke-dasharray:none" /><path
       d="m 167.89924,259.48726 c 1.14102,-1.0947 2.68883,-1.76774 4.39539,-1.76774 1.70656,0 3.25438,0.67304 4.39539,1.76774 0.21167,0.20175 0.54571,0.19514 0.74745,-0.0149 0.20175,-0.21001 0.19513,-0.5457 -0.0149,-0.74745 -1.32953,-1.27827 -3.13697,-2.06375 -5.12795,-2.06375 -1.99099,0 -3.79843,0.78548 -5.12961,2.0621 -0.21002,0.2034 -0.21663,0.53743 -0.0149,0.7491 0.20174,0.21166 0.53743,0.21828 0.74744,0.0149 z m 4.39539,0.87809 c 0.93927,0 1.79586,0.34892 2.45071,0.92605 0.21993,0.19347 0.55397,0.17198 0.74744,-0.0463 0.19348,-0.21828 0.17198,-0.55397 -0.0463,-0.74744 -0.84005,-0.74083 -1.94469,-1.19062 -3.15185,-1.19062 -1.20716,0 -2.31179,0.44979 -3.15019,1.19062 -0.21994,0.19347 -0.23978,0.52751 -0.0463,0.74744 0.19347,0.21994 0.52751,0.23978 0.74745,0.0463 0.65319,-0.57713 1.50977,-0.92605 2.4507,-0.92605 z m 1.05834,2.64584 a 1.058335,1.058335 0 1 0 -2.11667,0 1.058335,1.058335 0 1 0 2.11667,0 z"
       id="path1-8"
       style="fill:#3d3846;stroke-width:0.264583" /><path
       d="m 53.892956,182.77891 h 2.116665 v 1.05833 h -2.116665 z m -0.264585,-1.05834 c -0.438215,0 -0.79375,0.35554 -0.79375,0.79375 v 1.5875 c 0,0.43822 0.355535,0.79375 0.79375,0.79375 h 0.79375 v 0.52917 h -4.23333 c -0.2927,0 -0.52917,0.23647 -0.52917,0.52917 0,0.29269 0.236475,0.52916 0.52917,0.52916 h 1.5875 v 0.52917 h -0.793755 c -0.438215,0 -0.79375,0.35553 -0.79375,0.79375 v 1.5875 c 0,0.43821 0.355535,0.79375 0.79375,0.79375 h 2.645835 c 0.438215,0 0.79375,-0.35554 0.79375,-0.79375 v -1.5875 c 0,-0.43822 -0.355535,-0.79375 -0.79375,-0.79375 h -0.79375 v -0.52917 h 4.233335 v 0.52917 h -0.79375 c -0.438215,0 -0.79375,0.35553 -0.79375,0.79375 v 1.5875 c 0,0.43821 0.355535,0.79375 0.79375,0.79375 h 2.645835 c 0.438215,0 0.79375,-0.35554 0.79375,-0.79375 v -1.5875 c 0,-0.43822 -0.355535,-0.79375 -0.79375,-0.79375 h -0.79375 v -0.52917 h 1.5875 c 0.292695,0 0.529164,-0.23647 0.529164,-0.52916 0,-0.2927 -0.236469,-0.52917 -0.529164,-0.52917 h -4.233335 v -0.52917 h 0.79375 c 0.438215,0 0.79375,-0.35553 0.79375,-0.79375 v -1.5875 c 0,-0.43821 -0.355535,-0.79374 -0.79375,-0.79374 z m -2.38125,7.40833 v -1.05833 h 2.11667 v 1.05833 z m 5.29167,-1.05833 h 2.116665 v 1.05833 h -2.116665 z"
       id="path1-4"
       style="fill:#3d3846;stroke-width:0.264583" /><path
       d="m 172.25443,227.77997 c -0.58539,0 -1.05834,0.47294 -1.05834,1.05833 v 0.59201 c -2.39778,0.38034 -4.23333,2.45732 -4.23333,4.96424 v 1.10464 c 0,1.50151 -0.51263,2.96002 -1.44859,4.1308 l -0.49279,0.61847 c -0.19182,0.23812 -0.2282,0.56555 -0.0959,0.84005 0.13229,0.2745 0.41009,0.44979 0.71437,0.44979 h 13.22917 c 0.30427,0 0.58208,-0.17528 0.71437,-0.44979 0.1323,-0.27451 0.0959,-0.60193 -0.0959,-0.84005 l -0.49278,-0.61516 c -0.93597,-1.17409 -1.4486,-2.6326 -1.4486,-4.13411 v -1.10464 c 0,-2.50692 -1.83554,-4.5839 -4.23333,-4.96424 v -0.59201 c 0,-0.58539 -0.47294,-1.05833 -1.05833,-1.05833 z m 0,3.175 h 0.26458 c 1.89838,0 3.43958,1.5412 3.43958,3.43958 v 1.10464 c 0,1.58419 0.45972,3.1287 1.313,4.45161 h -10.03434 c 0.85329,-1.32291 1.313,-2.86742 1.313,-4.45161 v -1.10464 c 0,-1.89838 1.5412,-3.43958 3.43959,-3.43958 z m 2.11666,11.64166 h -2.11666 -2.11667 c 0,0.56224 0.22159,1.10133 0.61846,1.49821 0.39688,0.39687 0.93597,0.61846 1.49821,0.61846 0.56223,0 1.10132,-0.22159 1.4982,-0.61846 0.39687,-0.39688 0.61846,-0.93596 0.61846,-1.49821 z"
       id="path1-5"
       style="fill:#3d3846;stroke-width:0.264583" /><path
       d="m 128.00755,256.13201 a 2.645835,2.645835 0 1 0 -5.29167,0 2.645835,2.645835 0 1 0 5.29167,0 z m -6.87917,0 a 4.233335,4.233335 0 1 1 8.46667,0 4.233335,4.233335 0 1 1 -8.46667,0 z m -1.5445,11.1125 h 11.55567 c -0.29435,-2.09352 -2.09351,-3.70417 -4.2664,-3.70417 h -3.02287 c -2.17289,0 -3.97205,1.61065 -4.2664,3.70417 z m -1.6305,0.60523 c 0,-3.25768 2.63922,-5.8969 5.8969,-5.8969 h 3.02287 c 3.25768,0 5.8969,2.63922 5.8969,5.8969 0,0.5424 -0.43987,0.98227 -0.98227,0.98227 h -12.85213 c -0.5424,0 -0.98227,-0.43987 -0.98227,-0.98227 z"
       id="path1-7"
       style="fill:#b5835a;stroke:#63452c;stroke-width:0.264583" /><path
       d="m 30.941562,198.14593 a 2.645835,2.645835 0 1 0 -5.29167,0 2.645835,2.645835 0 1 0 5.29167,0 z m -6.87917,0 a 4.233335,4.233335 0 1 1 8.46667,0 4.233335,4.233335 0 1 1 -8.46667,0 z m -1.5445,11.1125 h 11.55567 c -0.29435,-2.09352 -2.09351,-3.70417 -4.2664,-3.70417 h -3.02287 c -2.17289,0 -3.97205,1.61065 -4.2664,3.70417 z m -1.6305,0.60523 c 0,-3.25768 2.63922,-5.8969 5.8969,-5.8969 h 3.02287 c 3.25768,0 5.8969,2.63922 5.8969,5.8969 0,0.5424 -0.43987,0.98227 -0.98227,0.98227 h -12.85213 c -0.5424,0 -0.98227,-0.43987 -0.98227,-0.98227 z"
       id="path1-7-1"
       style="fill:#b5835a;stroke:#63452c;stroke-width:0.264583" /><path
       d="m 127.19331,133.40935 c -0.29105,0 -0.52917,0.23813 -0.52917,0.52917 v 5.35782 c 0.16867,-0.043 0.34726,-0.0661 0.52917,-0.0661 h 12.69999 c 0.1819,0 0.3605,0.0232 0.52917,0.0661 v -5.35782 c 0,-0.29104 -0.23813,-0.52917 -0.52917,-0.52917 z m -0.52917,7.9375 v 3.175 c 0,0.29104 0.23812,0.52917 0.52917,0.52917 h 12.69999 c 0.29105,0 0.52917,-0.23813 0.52917,-0.52917 v -3.175 c 0,-0.29104 -0.23813,-0.52916 -0.52917,-0.52916 h -12.7 c -0.29105,0 -0.52916,0.23812 -0.52916,0.52916 z m -1.5875,0 v -7.40833 c 0,-1.16747 0.94919,-2.11666 2.11667,-2.11666 h 12.69999 c 1.16748,0 2.11666,0.94919 2.11666,2.11666 v 7.40833 3.175 c 0,1.16748 -0.94918,2.11667 -2.11666,2.11667 h -12.7 c -1.16748,0 -2.11667,-0.94919 -2.11667,-2.11667 z m 9.26042,1.5875 a 0.79375,0.79375 0 1 1 1.58749,0 0.79375,0.79375 0 1 1 -1.58749,0 z m 3.96874,-0.79375 a 0.7937525,0.7937525 0 1 1 0,1.5875 0.7937525,0.7937525 0 1 1 0,-1.5875 z"
       id="path1-72"
       style="fill:#5e5c64;stroke-width:0.264583" /><path
       d="m 85.252639,41.571448 c 0.145525,0 0.264585,0.119065 0.264585,0.26459 v 2.64583 c 0,0.145525 -0.11906,0.264585 -0.264585,0.264585 h -6.35 c -0.14552,0 -0.264585,-0.11906 -0.264585,-0.264585 v -2.64583 c 0,-0.14552 0.119065,-0.26459 0.264585,-0.26459 z m -6.35,-1.058332 c -0.73091,0 -1.322915,0.592007 -1.322915,1.322917 v 2.645835 c 0,0.73091 0.592005,1.322915 1.322915,1.322915 h 6.35 c 0.73091,0 1.322915,-0.592005 1.322915,-1.322915 v -0.26458 c 0.2927,0 0.52917,-0.236475 0.52917,-0.52917 v -1.05833 c 0,-0.292695 -0.23647,-0.529165 -0.52917,-0.529165 v -0.264585 c 0,-0.730915 -0.592005,-1.322921 -1.322915,-1.322921 z m 3.439585,1.587502 h -3.175 v 2.11667 h 3.175 z"
       id="path1-0"
       style="fill:#5e5c64;stroke-width:0.264583" /><path
       d="m 25.653414,159.75462 c 0,-0.58539 -0.47295,-1.05833 -1.05834,-1.05833 -0.58539,0 -1.05833,0.47294 -1.05833,1.05833 v 11.11244 c 0,1.46182 1.18401,2.64583 2.64583,2.64583 h 13.22917 c 0.58539,0 1.05833,-0.47294 1.05833,-1.05834 0,-0.58538 -0.47294,-1.05832 -1.05833,-1.05832 h -13.22917 c -0.29104,0 -0.52916,-0.23812 -0.52916,-0.52917 z m 13.44744,2.86411 c 0.41341,-0.41341 0.41341,-1.08479 0,-1.4982 -0.41341,-0.41341 -1.08479,-0.41341 -1.4982,0 l -3.48258,3.48587 -1.89838,-1.89838 c -0.41342,-0.41341 -1.0848,-0.41341 -1.49821,0 l -3.70416,3.70415 c -0.41341,0.4134 -0.41341,1.08478 0,1.49819 0.41341,0.41341 1.08479,0.41341 1.4982,0 l 2.95672,-2.9534 1.89838,1.89838 c 0.41342,0.41341 1.0848,0.41341 1.49821,0 l 4.23333,-4.2333 z"
       id="path1-9"
       style="fill:#c061cb;stroke-width:0.264583" /><path
       d="m 78.234622,162.67055 v 7.40834 h -10.58333 v -7.40834 z m -10.58333,-2.11666 c -1.16748,0 -2.11667,0.94919 -2.11667,2.11666 v 7.40834 c 0,1.16747 0.94919,2.11666 2.11667,2.11666 h 3.87945 l -0.35388,1.05834 h -2.46724 c -0.58539,0 -1.05833,0.47294 -1.05833,1.05833 0,0.58539 0.47294,1.05833 1.05833,1.05833 h 8.46667 c 0.58539,0 1.05833,-0.47294 1.05833,-1.05833 0,-0.58539 -0.47294,-1.05833 -1.05833,-1.05833 h -2.47055 l -0.35388,-1.05834 h 3.88276 c 1.16748,0 2.11667,-0.94919 2.11667,-2.11666 v -7.40834 c 0,-1.16747 -0.94919,-2.11666 -2.11667,-2.11666 z m 15.34583,0 c -0.87643,0 -1.5875,0.71106 -1.5875,1.5875 v 11.64166 c 0,0.87644 0.71107,1.5875 1.5875,1.5875 h 2.11667 c 0.87643,0 1.5875,-0.71106 1.5875,-1.5875 v -11.64166 c 0,-0.87644 -0.71107,-1.5875 -1.5875,-1.5875 z m 0.52917,2.11666 h 1.05833 c 0.29104,0 0.52917,0.23813 0.52917,0.52917 0,0.29104 -0.23813,0.52917 -0.52917,0.52917 h -1.05833 c -0.29104,0 -0.52917,-0.23813 -0.52917,-0.52917 0,-0.29104 0.23813,-0.52917 0.52917,-0.52917 z m -0.52917,2.64584 c 0,-0.29105 0.23813,-0.52917 0.52917,-0.52917 h 1.05833 c 0.29104,0 0.52917,0.23813 0.52917,0.52917 0,0.29104 -0.23813,0.52916 -0.52917,0.52916 h -1.05833 c -0.29104,0 -0.52917,-0.23812 -0.52917,-0.52916 z m 1.05834,5.29166 a 1.058335,1.058335 0 1 1 0,2.11667 1.058335,1.058335 0 1 1 0,-2.11667 z"
       id="path1-91"
       style="fill:#3d3846;stroke-width:0.264583" /><path
       d="m 83.83964,180.92682 v 0.79374 c 0,0.73091 -1.6586,1.32292 -3.70416,1.32292 -2.04556,0 -3.70417,-0.59201 -3.70417,-1.32292 v -0.79374 c 0,-0.73091 1.65861,-1.32293 3.70417,-1.32293 2.04556,0 3.70416,0.59201 3.70416,1.32293 z m -0.9062,2.22746 c 0.34396,-0.12237 0.65981,-0.27947 0.9062,-0.47294 v 1.68506 c 0,0.73091 -1.6586,1.32292 -3.70416,1.32292 -2.04556,0 -3.70417,-0.59201 -3.70417,-1.32292 v -1.68506 c 0.24639,0.19513 0.56224,0.35057 0.9062,0.47294 0.74248,0.26458 1.73136,0.41837 2.79797,0.41837 1.0666,0 2.05548,-0.15379 2.79796,-0.41837 z m -6.50213,2.17289 c 0.24639,0.19513 0.56224,0.35058 0.9062,0.47294 0.74248,0.26459 1.73136,0.41838 2.79797,0.41838 1.0666,0 2.05548,-0.15379 2.79796,-0.41838 0.34396,-0.12236 0.65981,-0.27946 0.9062,-0.47294 v 1.42048 c 0,0.73091 -1.6586,1.32292 -3.70416,1.32292 -2.04556,0 -3.70417,-0.59201 -3.70417,-1.32292 z"
       id="path1-1"
       style="fill:#3d3846;stroke-width:0.264583" /><path
       d="m 81.08969,81.969653 c -1.336145,0 -2.406055,0.60854 -3.18492,1.33284 -0.773904,0.71768 -1.291499,1.57758 -1.53624,2.16793 -0.05457,0.13064 -0.05457,0.27616 0,0.4068 0.244741,0.59035 0.762336,1.45024 1.53624,2.16792 0.778866,0.7243 1.848776,1.33284 3.18492,1.33284 1.336145,0 2.406053,-0.60854 3.184923,-1.33284 0.773909,-0.71933 1.291499,-1.57757 1.537889,-2.16792 0.0546,-0.13064 0.0546,-0.27616 0,-0.4068 -0.24639,-0.59035 -0.76398,-1.45025 -1.537889,-2.16793 -0.77887,-0.7243 -1.848778,-1.33284 -3.184923,-1.33284 z m -2.381245,3.70417 a 2.3812505,2.3812505 0 1 1 4.762498,0 2.3812505,2.3812505 0 1 1 -4.762498,0 z m 2.381245,-1.05833 c 0,0.58373 -0.474594,1.05833 -1.05833,1.05833 -0.117409,0 -0.22986,-0.0198 -0.335695,-0.0546 -0.09094,-0.0298 -0.196779,0.0265 -0.193469,0.12237 0.005,0.1141 0.0215,0.2282 0.05291,0.34231 0.22655,0.84666 1.09802,1.34937 1.944685,1.12282 0.846665,-0.22655 1.349372,-1.09802 1.122825,-1.94469 -0.183554,-0.68626 -0.79044,-1.14763 -1.465125,-1.17574 -0.09592,-0.003 -0.15214,0.10087 -0.122375,0.19348 0.03475,0.10583 0.05457,0.21828 0.05457,0.33569 z"
       id="path1-76"
       style="fill:#c01c28;stroke:#a51d2d;stroke-width:0.264583" /><path
       d="m 33.290264,35.625543 c -0.05622,0 -0.112445,0.0033 -0.16867,0.01653 -2.827735,0.545704 -4.560755,3.366824 -4.06797,6.244166 0.09592,0.562243 0.277815,1.0881 0.52586,1.567655 l -3.78354,-0.420026 h -0.08599 c -0.53578,0 -0.972345,0.43656 -0.972345,0.972344 0,0.05622 0.0035,0.112445 0.01655,0.16867 0.545705,2.827736 3.366825,4.560753 6.24417,4.067968 0.56224,-0.09592 1.0881,-0.277814 1.567655,-0.52586 l -0.420025,3.78354 v 0.086 c 0,0.53579 0.43656,0.972351 0.972345,0.972351 0.05622,0 0.112445,-0.004 0.16867,-0.0165 2.827735,-0.54571 4.560755,-3.366829 4.06797,-6.244168 -0.09591,-0.56224 -0.277815,-1.088099 -0.52586,-1.567661 l 3.78354,0.42003 h 0.08599 c 0.53578,0 0.972345,-0.436565 0.972345,-0.972345 0,-0.05622 -0.0035,-0.11245 -0.01655,-0.16867 -0.545705,-2.827734 -3.366825,-4.560755 -6.244165,-4.06797 -0.56224,0.09591 -1.0881,0.27781 -1.56766,0.52586 l 0.42003,-3.78354 v -0.08599 c 0,-0.535781 -0.436565,-0.972343 -0.972345,-0.972343 z m -0.08599,7.408335 a 1.0583337,1.0583337 0 1 1 0,2.116664 1.0583337,1.0583337 0 1 1 0,-2.116664 z"
       id="path1-56"
       style="fill:#8ff0a4;stroke:#26a269;stroke-width:0.264583" /><path
       d="m 143.80068,254.01534 c 0,-1.16747 0.94919,-2.11666 2.11667,-2.11666 h 7.40832 c 1.16749,0 2.11667,0.94919 2.11667,2.11666 v 12.7 c 0,1.16747 -0.94918,2.11667 -2.11667,2.11667 h -7.40832 c -1.16748,0 -2.11667,-0.9492 -2.11667,-2.11667 z m 4.23334,12.7 c 0,0.29104 0.23811,0.52917 0.52916,0.52917 h 2.11667 c 0.29104,0 0.52916,-0.23813 0.52916,-0.52917 0,-0.29104 -0.23812,-0.52917 -0.52916,-0.52917 h -2.11667 c -0.29105,0 -0.52916,0.23813 -0.52916,0.52917 z m 5.29165,-12.7 h -7.40832 v 10.58333 h 7.40832 z"
       id="path1-81"
       style="fill:#3d3846;stroke-width:0.264583" /><path
       d="m 26.660862,57.229594 c -1.008725,0 -1.875235,0.711068 -2.07367,1.699948 l -1.693335,8.466667 c -0.261275,1.309691 0.737525,2.533386 2.07367,2.533386 h 7.176825 v 2.116664 h -2.116665 c -0.585395,0 -1.058335,0.472946 -1.058335,1.058335 0,0.585389 0.47294,1.058335 1.058335,1.058335 h 6.35 c 0.58539,0 1.05833,-0.472946 1.05833,-1.058335 0,-0.585389 -0.47294,-1.058335 -1.05833,-1.058335 h -2.11667 v -2.116664 h 7.176825 c 1.336145,0 2.338255,-1.220391 2.07698,-2.533386 l -1.693335,-8.466667 c -0.201745,-0.98888 -1.068255,-1.699947 -2.07698,-1.699947 z m 4.587215,2.116667 h 3.909215 l 0.34396,3.439583 h -4.597135 z m -1.938075,3.439583 h -3.337055 l 0.687915,-3.439583 h 2.98979 z m -3.654555,1.5875 h 3.495805 l -0.34396,3.439585 h -3.839765 z m 5.08992,0 h 4.914635 l 0.34396,3.439585 h -5.602555 z m 6.50875,0 h 3.495805 l 0.68792,3.439585 h -3.83646 z m 3.175,-1.5875 h -3.33375 l -0.34396,-3.439583 h 2.989795 l 1.03849,-0.208359 -1.035185,0.208359 0.687915,3.439583 z"
       id="path1-90"
       style="fill:#f8e45c;stroke:#e5a50a;stroke-width:0.165;stroke-dasharray:none" /><path
       d="m 32.592437,86.305813 c 0.36711,-0.26128 0.85659,-0.26128 1.223695,0 0.744145,0.51263 1.65365,0.8632 2.563155,0.8632 0.88966,0 1.83224,-0.35718 2.55984,-0.8632 v 0 c 0.39357,-0.28112 0.92935,-0.25797 1.29646,0.0562 0.47625,0.39357 1.07487,0.69453 1.67349,0.83344 0.568855,0.13229 0.922735,0.70115 0.79044,1.27 -0.13229,0.56885 -0.701145,0.92273 -1.27,0.79044 -0.810285,-0.18851 -1.48497,-0.5457 -1.92484,-0.82682 -0.959115,0.51594 -2.033985,0.85659 -3.125391,0.85659 -1.05503,0 -2.00422,-0.32742 -2.659064,-0.62508 -0.19182,-0.0893 -0.36711,-0.17529 -0.515935,-0.25466 -0.14883,0.0794 -0.32081,0.16867 -0.515941,0.25466 -0.654845,0.29766 -1.604035,0.62508 -2.65906,0.62508 -1.09141,0 -2.16628,-0.34065 -3.125395,-0.85328 -0.443175,0.27781 -1.114555,0.6383 -1.92484,0.82682 -0.568855,0.13229 -1.13771,-0.22159 -1.27,-0.79044 -0.132295,-0.56886 0.221585,-1.13771 0.79044,-1.27 0.595315,-0.14222 1.19724,-0.44318 1.670185,-0.83675 0.36711,-0.31419 0.90289,-0.33403 1.296455,-0.0562 v 0 c 0.73422,0.50602 1.673491,0.8632 2.563156,0.8632 0.909505,0 1.819009,-0.35057 2.56315,-0.8632 z m 1.223695,9.525 c 0.744145,0.51263 1.65365,0.8632 2.563155,0.8632 0.88966,0 1.83224,-0.35719 2.55984,-0.8632 v 0 c 0.39357,-0.28112 0.92935,-0.25797 1.29646,0.0562 0.47625,0.39357 1.07487,0.69453 1.67349,0.83344 0.568855,0.13229 0.922735,0.70115 0.79044,1.27 -0.13229,0.56885 -0.701145,0.92273 -1.27,0.79044 -0.810285,-0.18851 -1.48497,-0.5457 -1.92484,-0.82682 -0.959115,0.51594 -2.033985,0.85659 -3.125391,0.85659 -1.05503,0 -2.00422,-0.32742 -2.659064,-0.62508 -0.19182,-0.0893 -0.36711,-0.17529 -0.515935,-0.25466 -0.14883,0.0794 -0.32081,0.16867 -0.515941,0.25466 -0.654845,0.29766 -1.604035,0.62508 -2.65906,0.62508 -1.09141,0 -2.16628,-0.34065 -3.125395,-0.85328 -0.443175,0.27781 -1.114555,0.6383 -1.92484,0.82682 -0.568855,0.13229 -1.13771,-0.22159 -1.27,-0.79044 -0.132295,-0.56886 0.221585,-1.13771 0.79044,-1.27 0.59862,-0.13891 1.19724,-0.43987 1.67349,-0.83344 0.36711,-0.31089 0.90289,-0.33404 1.29646,-0.0562 v 0 c 0.73091,0.5027 1.67018,0.85989 2.559845,0.85989 0.909505,0 1.81901,-0.35057 2.56315,-0.8632 0.367111,-0.26128 0.856591,-0.26128 1.223696,0 z m 0,-4.7625 c 0.744145,0.51263 1.65365,0.8632 2.563155,0.8632 0.88966,0 1.83224,-0.35719 2.55984,-0.8632 v 0 c 0.39357,-0.28112 0.92935,-0.25797 1.29646,0.0562 0.47625,0.39357 1.07487,0.69453 1.67349,0.83344 0.568855,0.13229 0.922735,0.70115 0.79044,1.27 -0.13229,0.56885 -0.701145,0.92273 -1.27,0.79044 -0.810285,-0.18851 -1.48497,-0.5457 -1.92484,-0.82682 -0.959115,0.51594 -2.033985,0.85659 -3.125391,0.85659 -1.05503,0 -2.00422,-0.32742 -2.659064,-0.62508 -0.19182,-0.0893 -0.36711,-0.17529 -0.515935,-0.25466 -0.14883,0.0794 -0.32081,0.16867 -0.515941,0.25466 -0.654845,0.29766 -1.604035,0.62508 -2.65906,0.62508 -1.09141,0 -2.16628,-0.34065 -3.125395,-0.85328 -0.443175,0.27781 -1.114555,0.6383 -1.92484,0.82682 -0.568855,0.13229 -1.13771,-0.22159 -1.27,-0.79044 -0.132295,-0.56886 0.221585,-1.13771 0.79044,-1.27 0.59862,-0.13891 1.19724,-0.43987 1.67349,-0.83344 0.36711,-0.31419 0.90289,-0.33404 1.29646,-0.0562 v 0 c 0.73091,0.5027 1.67018,0.85989 2.559845,0.85989 0.909505,0 1.81901,-0.35057 2.56315,-0.8632 0.367111,-0.26128 0.856591,-0.26128 1.223696,0 z"
       id="path1-09"
       style="fill:#1a5fb4;stroke:#8ff0a4;stroke-width:0.264583" /><path
       d="m 109.3298,82.590445 h -2.95509 c -0.28112,0 -0.55066,0.110795 -0.7491,0.30923 l -1.27828,1.27827 c -0.19844,0.19844 -0.30923,0.467985 -0.30923,0.749105 v 5.071725 c 0,0.58374 0.4746,1.058335 1.05834,1.058335 h 4.23336 c 0.58374,0 1.05833,-0.474595 1.05833,-1.058335 V 83.64878 c 0,-0.583745 -0.47459,-1.058335 -1.05833,-1.058335 z m -2.64585,1.455205 v 0.793755 c 0,0.219935 -0.17694,0.39687 -0.39688,0.39687 -0.21994,0 -0.39687,-0.17694 -0.39687,-0.39687 V 84.04565 c 0,-0.219935 0.17693,-0.39687 0.39687,-0.39687 0.21993,0 0.39688,0.17694 0.39688,0.39687 z m 1.32292,0 v 0.793755 c 0,0.219935 -0.17694,0.39687 -0.39688,0.39687 -0.21993,0 -0.39687,-0.17694 -0.39687,-0.39687 V 84.04565 c 0,-0.219935 0.17694,-0.39687 0.39687,-0.39687 0.21994,0 0.39688,0.17694 0.39688,0.39687 z m 1.32292,0 v 0.793755 c 0,0.219935 -0.17694,0.39687 -0.39687,0.39687 -0.21993,0 -0.39688,-0.17694 -0.39688,-0.39687 V 84.04565 c 0,-0.219935 0.17695,-0.39687 0.39688,-0.39687 0.21993,0 0.39687,0.17694 0.39687,0.39687 z"
       id="path1-84"
       style="fill:#5e5c64;stroke-width:0.264583" /><path
       d="m 118.25669,49.621056 c 0,-0.292695 0.23647,-0.529165 0.52917,-0.529165 3.80008,0 6.87917,3.07909 6.87917,6.879165 0,0.2927 -0.23647,0.52917 -0.52916,0.52917 -0.2927,0 -0.52917,-0.23647 -0.52917,-0.52917 0,-3.214685 -2.60615,-5.82083 -5.82084,-5.82083 -0.2927,0 -0.52917,-0.236475 -0.52917,-0.52917 z m 0,5.820835 a 1.0583375,1.0583375 0 1 1 2.11667,0 1.0583375,1.0583375 0 1 1 -2.11667,0 z m 0.52917,-4.23333 c 2.63096,0 4.76251,2.131545 4.76251,4.762495 0,0.2927 -0.23648,0.52917 -0.52918,0.52917 -0.29269,0 -0.52916,-0.23647 -0.52916,-0.52917 0,-2.045555 -1.65861,-3.704165 -3.70417,-3.704165 -0.2927,0 -0.52917,-0.23647 -0.52917,-0.529165 0,-0.292695 0.23647,-0.529165 0.52917,-0.529165 z"
       id="path1-3"
       style="fill:#5e5c64;stroke-width:0.264583" /><path
       d="m 80.225565,56.945442 c 0,-0.43988 -0.35388,-0.79376 -0.79375,-0.79376 -0.43987,0 -0.79375,0.35388 -0.79375,0.79376 v 1.32291 c -1.16748,0 -2.11667,0.9492 -2.11667,2.11666 h -1.32292 c -0.43987,0 -0.79375,0.35388 -0.79375,0.79375 0,0.43987 0.35388,0.79375 0.79375,0.79375 h 1.32292 v 1.85209 h -1.32292 c -0.43987,0 -0.79375,0.35388 -0.79375,0.79375 0,0.43987 0.35388,0.79375 0.79375,0.79375 h 1.32292 v 1.85209 h -1.32292 c -0.43987,0 -0.79375,0.35388 -0.79375,0.79375 0,0.43987 0.35388,0.79375 0.79375,0.79375 h 1.32292 c 0,1.16746 0.94919,2.11665 2.11667,2.11665 v 1.32292 c 0,0.43987 0.35388,0.79375 0.79375,0.79375 0.43987,0 0.79375,-0.35389 0.79375,-0.79375 v -1.32292 h 1.85208 v 1.32292 c 0,0.43987 0.35388,0.79375 0.79375,0.79375 0.43987,0 0.79375,-0.35389 0.79375,-0.79375 v -1.32292 h 1.85208 v 1.32292 c 0,0.43987 0.35388,0.79375 0.79375,0.79375 0.43987,0 0.79375,-0.35389 0.79375,-0.79375 v -1.32292 c 1.16748,0 2.11667,-0.94919 2.11667,-2.11665 h 1.32292 c 0.43987,0 0.79375,-0.35388 0.79375,-0.79375 0,-0.43987 -0.35388,-0.79375 -0.79375,-0.79375 h -1.32292 v -1.85209 h 1.32292 c 0.43987,0 0.79375,-0.35388 0.79375,-0.79375 0,-0.43987 -0.35388,-0.79375 -0.79375,-0.79375 h -1.32292 v -1.85209 h 1.32292 c 0.43987,0 0.79375,-0.35388 0.79375,-0.79375 0,-0.43987 -0.35388,-0.79375 -0.79375,-0.79375 h -1.32292 c 0,-1.16746 -0.94919,-2.11666 -2.11667,-2.11666 v -1.32291 c 0,-0.43988 -0.35388,-0.79376 -0.79375,-0.79376 -0.43987,0 -0.79375,0.35388 -0.79375,0.79376 v 1.32291 h -1.85208 v -1.32291 c 0,-0.43988 -0.35388,-0.79376 -0.79375,-0.79376 -0.43987,0 -0.79375,0.35388 -0.79375,0.79376 v 1.32291 h -1.85208 z m -0.52917,3.43957 h 6.35 c 0.58539,0 1.05833,0.47295 1.05833,1.05834 v 6.35 c 0,0.58539 -0.47294,1.05834 -1.05833,1.05834 h -6.35 c -0.58539,0 -1.05833,-0.47295 -1.05833,-1.05834 v -6.35 c 0,-0.58539 0.47294,-1.05834 1.05833,-1.05834 z m 6.35,1.05834 h -6.35 v 6.35 h 6.35 z"
       id="path1-44"
       style="fill:#5e5c64;stroke-width:0.264583" /><g
       id="g14"
       transform="translate(7.9607969,14.879081)"><path
         d="m 128.73109,164.72582 c -0.87643,0 -1.58751,0.71107 -1.58751,1.5875 0,0.4994 0.23482,0.96904 0.635,1.27 l 7.19667,5.3975 c 0.37703,0.28112 0.89297,0.28112 1.26999,0 l 7.19667,-5.3975 c 0.40019,-0.30096 0.63501,-0.7706 0.63501,-1.27 0,-0.87643 -0.71107,-1.5875 -1.5875,-1.5875 z m -1.58751,3.70417 v 6.87916 c 0,1.16748 0.9492,2.11666 2.11667,2.11666 h 12.7 c 1.16747,0 2.11667,-0.94918 2.11667,-2.11666 v -6.87916 l -7.19668,5.3975 c -0.75405,0.56555 -1.78593,0.56555 -2.53999,0 z"
         id="path1-6"
         style="fill:#f66151;stroke:#c01c28;stroke-width:0.264583" /><path
         d="m 140.95153,175.30915 c -0.57462,0 -1.0418,0.46718 -1.0418,1.0418 v 4.68808 c 0,0.57463 0.46718,1.0418 1.0418,1.0418 h 1.56269 v 1.30225 c 0,0.0993 0.0554,0.18881 0.14325,0.23276 0.0879,0.044 0.19371,0.0342 0.27347,-0.0244 l 2.0136,-1.51061 h 2.25777 c 0.57462,0 1.0418,-0.46718 1.0418,-1.04179 v -4.68809 c 0,-0.57462 -0.46718,-1.0418 -1.0418,-1.0418 z"
         id="path1-62"
         style="fill:#f66151;stroke:#a51d2d;stroke-width:0.264583" /></g><path
       style="fill:none;fill-opacity:1;fill-rule:evenodd;stroke:#c0bfbc;stroke-width:0.819095;stroke-miterlimit:3.2;stroke-dasharray:none;stroke-dashoffset:0;stroke-opacity:1;marker-start:url(#RoundedArrow);marker-end:url(#RoundedArrow-7)"
       d="m 126.90962,66.81798 c 9.25883,3.045908 18.51766,6.091816 23.87014,12.398752 5.35247,6.306936 6.79854,15.874517 5.74669,22.293328 -1.05184,6.41882 -4.60148,9.68855 -8.15119,12.95834"
       id="path14-8"
       inkscape:path-effect="#path-effect14-3"
       inkscape:original-d="m 126.90962,66.81798 c 9.25883,3.045907 18.51766,6.091817 27.77649,9.137724 1.44613,9.567963 2.89219,19.135545 4.33828,28.703316 -3.54978,3.26986 -7.09942,6.53959 -10.64913,9.80938"
       transform="matrix(-0.2465778,-0.82578401,0.80929787,-0.25160081,63.268503,268.82313)"
       inkscape:transform-center-x="-4.2105538"
       inkscape:transform-center-y="3.5846909" /><path
       style="fill:none;fill-opacity:1;fill-rule:evenodd;stroke:#c0bfbc;stroke-width:0.935661;stroke-miterlimit:3.2;stroke-dasharray:none;stroke-dashoffset:0;stroke-opacity:1;marker-end:url(#RoundedArrow)"
       d="m 93.09674,185.95392 c 3.24222,-4.53658 6.48444,-9.07316 13.46377,-11.37867 6.97933,-2.30551 17.69535,-2.37996 24.48665,-1.16981 6.7913,1.21014 9.65757,3.70478 12.52389,6.19946"
       id="path15"
       inkscape:path-effect="#path-effect15"
       inkscape:original-d="m 93.09674,185.95392 c 3.24222,-4.53658 6.48444,-9.07316 9.72666,-13.60974 10.71644,-0.0744 21.43246,-0.14889 32.14868,-0.22333 2.86638,2.49473 5.73265,4.98937 8.59897,7.48405"
       transform="matrix(0.7572601,0,0,0.73911799,22.683745,45.109628)" /><path
       style="fill:none;fill-opacity:1;fill-rule:evenodd;stroke:#c0bfbc;stroke-width:0.753164;stroke-miterlimit:3.2;stroke-dasharray:none;stroke-dashoffset:0;stroke-opacity:1;marker-end:url(#RoundedArrow)"
       d="m 156.2049,193.57407 c 8.05603,1.04667 16.11206,2.09334 20.47121,3.78494 4.35915,1.69161 5.02139,4.02805 3.74615,7.60787 -1.27524,3.57981 -4.48784,8.40276 -7.70051,13.22581"
       id="path16"
       inkscape:path-effect="#path-effect16"
       inkscape:original-d="m 156.2049,193.57407 c 8.05603,1.04667 16.11206,2.09334 24.16809,3.14001 0.66227,2.33654 1.32451,4.67298 1.98677,7.00946 -3.21274,4.82315 -6.42534,9.6461 -9.63801,14.46915"
       transform="matrix(1,0,0,0.8638076,2.1166667,26.39246)" /><path
       style="fill:#77767b;fill-opacity:1;fill-rule:evenodd;stroke:#3d3846;stroke-width:0.699999;stroke-miterlimit:3.2;stroke-dasharray:none;stroke-dashoffset:0;stroke-opacity:1;marker-end:url(#RoundedArrow-8)"
       d="M 48.098218,63.971459 H 65.018344"
       id="path17-4" /><path
       style="fill:#77767b;fill-opacity:1;fill-rule:evenodd;stroke:#3d3846;stroke-width:0.699999;stroke-miterlimit:3.2;stroke-dasharray:none;stroke-dashoffset:0;stroke-opacity:1;marker-end:url(#RoundedArrow-8-0)"
       d="M 48.098218,85.673818 H 65.018344"
       id="path17-4-2" /><path
       style="fill:#77767b;fill-opacity:1;fill-rule:evenodd;stroke:#3d3846;stroke-width:0.699999;stroke-miterlimit:3.2;stroke-dasharray:none;stroke-dashoffset:0;stroke-opacity:1;marker-end:url(#RoundedArrow-8-9)"
       d="M 47.889578,43.61524 H 64.809704"
       id="path17-4-0" /></g><g
     inkscape:groupmode="layer"
     id="layer2"
     inkscape:label="Text"><text
       xml:space="preserve"
       style="font-style:normal;font-variant:normal;font-weight:bold;font-stretch:normal;font-size:4.93889px;font-family:'Latin Modern Sans';-inkscape-font-specification:'Latin Modern Sans, Bold';font-variant-ligatures:normal;font-variant-caps:normal;font-variant-numeric:normal;font-variant-east-asian:normal;fill:#c061cb;fill-opacity:1;fill-rule:evenodd;stroke:none;stroke-width:0.7;stroke-miterlimit:3.2;stroke-dasharray:none;stroke-dashoffset:0;stroke-opacity:1"
       x="18.004881"
       y="33.322254"
       id="text17"><tspan
         sodipodi:role="line"
         id="tspan17"
         style="font-style:normal;font-variant:normal;font-weight:bold;font-stretch:normal;font-size:4.93889px;font-family:'Latin Modern Sans';-inkscape-font-specification:'Latin Modern Sans, Bold';font-variant-ligatures:normal;font-variant-caps:normal;font-variant-numeric:normal;font-variant-east-asian:normal;fill:#5e5c64;stroke:none;stroke-width:0.7"
         x="18.004881"
         y="33.322254">micro-turbine</tspan></text><text
       xml:space="preserve"
       style="font-style:normal;font-variant:normal;font-weight:bold;font-stretch:normal;font-size:4.93889px;font-family:'Latin Modern Sans';-inkscape-font-specification:'Latin Modern Sans, Bold';font-variant-ligatures:normal;font-variant-caps:normal;font-variant-numeric:normal;font-variant-east-asian:normal;fill:#c061cb;fill-opacity:1;fill-rule:evenodd;stroke:none;stroke-width:0.7;stroke-miterlimit:3.2;stroke-dasharray:none;stroke-dashoffset:0;stroke-opacity:1"
       x="15.473705"
       y="79.218742"
       id="text17-4"><tspan
         sodipodi:role="line"
         id="tspan17-8"
         style="font-style:normal;font-variant:normal;font-weight:bold;font-stretch:normal;font-size:4.93889px;font-family:'Latin Modern Sans';-inkscape-font-specification:'Latin Modern Sans, Bold';font-variant-ligatures:normal;font-variant-caps:normal;font-variant-numeric:normal;font-variant-east-asian:normal;fill:#5e5c64;stroke:none;stroke-width:0.7"
         x="15.473705"
         y="79.218742">mini solar panel</tspan></text><text
       xml:space="preserve"
       style="font-style:normal;font-variant:normal;font-weight:bold;font-stretch:normal;font-size:4.93889px;font-family:'Latin Modern Sans';-inkscape-font-specification:'Latin Modern Sans, Bold';font-variant-ligatures:normal;font-variant-caps:normal;font-variant-numeric:normal;font-variant-east-asian:normal;fill:#c061cb;fill-opacity:1;fill-rule:evenodd;stroke:none;stroke-width:0.7;stroke-miterlimit:3.2;stroke-dasharray:none;stroke-dashoffset:0;stroke-opacity:1"
       x="21.49913"
       y="105.01483"
       id="text17-4-0"><tspan
         sodipodi:role="line"
         id="tspan17-8-9"
         style="font-style:normal;font-variant:normal;font-weight:bold;font-stretch:normal;font-size:4.93889px;font-family:'Latin Modern Sans';-inkscape-font-specification:'Latin Modern Sans, Bold';font-variant-ligatures:normal;font-variant-caps:normal;font-variant-numeric:normal;font-variant-east-asian:normal;fill:#5e5c64;stroke:none;stroke-width:0.7"
         x="21.49913"
         y="105.01483">water flow</tspan></text><text
       xml:space="preserve"
       style="font-style:normal;font-variant:normal;font-weight:bold;font-stretch:normal;font-size:4.93889px;font-family:'Latin Modern Sans';-inkscape-font-specification:'Latin Modern Sans, Bold';font-variant-ligatures:normal;font-variant-caps:normal;font-variant-numeric:normal;font-variant-east-asian:normal;fill:#c061cb;fill-opacity:1;fill-rule:evenodd;stroke:none;stroke-width:0.7;stroke-miterlimit:3.2;stroke-dasharray:none;stroke-dashoffset:0;stroke-opacity:1"
       x="74.785835"
       y="95.236115"
       id="text17-4-0-1"><tspan
         sodipodi:role="line"
         id="tspan17-8-9-3"
         style="font-style:normal;font-variant:normal;font-weight:bold;font-stretch:normal;font-size:4.93889px;font-family:'Latin Modern Sans';-inkscape-font-specification:'Latin Modern Sans, Bold';font-variant-ligatures:normal;font-variant-caps:normal;font-variant-numeric:normal;font-variant-east-asian:normal;fill:#5e5c64;stroke:none;stroke-width:0.7"
         x="74.785835"
         y="95.236115">IR sensor</tspan></text><text
       xml:space="preserve"
       style="font-style:normal;font-variant:normal;font-weight:bold;font-stretch:normal;font-size:4.93889px;font-family:'Latin Modern Sans';-inkscape-font-specification:'Latin Modern Sans, Bold';font-variant-ligatures:normal;font-variant-caps:normal;font-variant-numeric:normal;font-variant-east-asian:normal;fill:#c061cb;fill-opacity:1;fill-rule:evenodd;stroke:none;stroke-width:0.7;stroke-miterlimit:3.2;stroke-dasharray:none;stroke-dashoffset:0;stroke-opacity:1"
       x="94.353195"
       y="67.791222"
       id="text17-4-0-1-1"><tspan
         sodipodi:role="line"
         id="tspan17-8-9-3-3"
         style="font-style:normal;font-variant:normal;font-weight:bold;font-stretch:normal;font-size:4.93889px;font-family:'Latin Modern Sans';-inkscape-font-specification:'Latin Modern Sans, Bold';font-variant-ligatures:normal;font-variant-caps:normal;font-variant-numeric:normal;font-variant-east-asian:normal;fill:#5e5c64;stroke:none;stroke-width:0.7"
         x="94.353195"
         y="67.791222">microcontroller</tspan></text><text
       xml:space="preserve"
       style="font-style:oblique;font-variant:normal;font-weight:bold;font-stretch:normal;font-size:6.35px;font-family:'Latin Modern Sans';-inkscape-font-specification:'Latin Modern Sans, Bold Oblique';font-variant-ligatures:normal;font-variant-caps:normal;font-variant-numeric:normal;font-variant-east-asian:normal;fill:#241f31;fill-opacity:1;fill-rule:evenodd;stroke:none;stroke-width:0.7;stroke-miterlimit:3.2;stroke-dasharray:none;stroke-dashoffset:0;stroke-opacity:1"
       x="73.211243"
       y="29.153744"
       id="text17-4-0-1-1-9"><tspan
         sodipodi:role="line"
         id="tspan17-8-9-3-3-76"
         style="font-style:oblique;font-variant:normal;font-weight:bold;font-stretch:normal;font-size:6.35px;font-family:'Latin Modern Sans';-inkscape-font-specification:'Latin Modern Sans, Bold Oblique';font-variant-ligatures:normal;font-variant-caps:normal;font-variant-numeric:normal;font-variant-east-asian:normal;fill:#241f31;stroke:none;stroke-width:0.7"
         x="73.211243"
         y="29.153744">Embedded System</tspan></text><text
       xml:space="preserve"
       style="font-style:oblique;font-variant:normal;font-weight:bold;font-stretch:normal;font-size:6.35px;font-family:'Latin Modern Sans';-inkscape-font-specification:'Latin Modern Sans, Bold Oblique';font-variant-ligatures:normal;font-variant-caps:normal;font-variant-numeric:normal;font-variant-east-asian:normal;fill:#241f31;fill-opacity:1;fill-rule:evenodd;stroke:none;stroke-width:0.7;stroke-miterlimit:3.2;stroke-dasharray:none;stroke-dashoffset:0;stroke-opacity:1"
       x="17.482777"
       y="148.26094"
       id="text17-4-0-1-1-9-6"><tspan
         sodipodi:role="line"
         id="tspan17-8-9-3-3-76-5"
         style="font-style:oblique;font-variant:normal;font-weight:bold;font-stretch:normal;font-size:6.35px;font-family:'Latin Modern Sans';-inkscape-font-specification:'Latin Modern Sans, Bold Oblique';font-variant-ligatures:normal;font-variant-caps:normal;font-variant-numeric:normal;font-variant-east-asian:normal;fill:#241f31;stroke:none;stroke-width:0.7"
         x="17.482777"
         y="148.26094">Back Office Software</tspan></text><text
       xml:space="preserve"
       style="font-style:normal;font-variant:normal;font-weight:bold;font-stretch:normal;font-size:4.93889px;font-family:'Latin Modern Sans';-inkscape-font-specification:'Latin Modern Sans, Bold';font-variant-ligatures:normal;font-variant-caps:normal;font-variant-numeric:normal;font-variant-east-asian:normal;fill:#c061cb;fill-opacity:1;fill-rule:evenodd;stroke:none;stroke-width:0.7;stroke-miterlimit:3.2;stroke-dasharray:none;stroke-dashoffset:0;stroke-opacity:1"
       x="93.673393"
       y="61.747475"
       id="text17-4-0-1-1-2"><tspan
         sodipodi:role="line"
         id="tspan17-8-9-3-3-4"
         style="font-style:normal;font-variant:normal;font-weight:bold;font-stretch:normal;font-size:4.93889px;font-family:'Latin Modern Sans';-inkscape-font-specification:'Latin Modern Sans, Bold';font-variant-ligatures:normal;font-variant-caps:normal;font-variant-numeric:normal;font-variant-east-asian:normal;fill:#5e5c64;stroke:none;stroke-width:0.7"
         x="93.673393"
         y="61.747475">GMS  transmitter</tspan></text><text
       xml:space="preserve"
       style="font-style:normal;font-variant:normal;font-weight:bold;font-stretch:normal;font-size:4.93889px;font-family:'Latin Modern Sans';-inkscape-font-specification:'Latin Modern Sans, Bold';font-variant-ligatures:normal;font-variant-caps:normal;font-variant-numeric:normal;font-variant-east-asian:normal;fill:#c061cb;fill-opacity:1;fill-rule:evenodd;stroke:none;stroke-width:0.7;stroke-miterlimit:3.2;stroke-dasharray:none;stroke-dashoffset:0;stroke-opacity:1"
       x="114.49267"
       y="89.401619"
       id="text17-4-0-1-1-1"><tspan
         sodipodi:role="line"
         id="tspan17-8-9-3-3-7"
         style="font-style:normal;font-variant:normal;font-weight:bold;font-stretch:normal;font-size:4.93889px;font-family:'Latin Modern Sans';-inkscape-font-specification:'Latin Modern Sans, Bold';font-variant-ligatures:normal;font-variant-caps:normal;font-variant-numeric:normal;font-variant-east-asian:normal;fill:#5e5c64;stroke:none;stroke-width:0.7"
         x="114.49267"
         y="89.401619">SD card</tspan></text><text
       xml:space="preserve"
       style="font-size:4.93888889px;font-family:'Latin Modern Sans';-inkscape-font-specification:'Latin Modern Sans, Bold';fill:#c061cb;fill-opacity:1;fill-rule:evenodd;stroke:none;stroke-width:0.7;stroke-miterlimit:3.2;stroke-dasharray:none;stroke-dashoffset:0;stroke-opacity:1;font-weight:bold;font-style:normal;font-stretch:normal;font-variant:normal;font-variant-ligatures:normal;font-variant-caps:normal;font-variant-numeric:normal;font-variant-east-asian:normal"
       x="145.23962"
       y="136.52762"
       id="text17-4-0-1-1-1-7"><tspan
         sodipodi:role="line"
         id="tspan17-8-9-3-3-7-8"
         style="font-style:normal;font-variant:normal;font-weight:bold;font-stretch:normal;font-size:4.93888889px;font-family:'Latin Modern Sans';-inkscape-font-specification:'Latin Modern Sans, Bold';font-variant-ligatures:normal;font-variant-caps:normal;font-variant-numeric:normal;font-variant-east-asian:normal;fill:#5e5c64;stroke:none;stroke-width:0.7"
         x="145.23962"
         y="136.52762">MQTT</tspan><tspan
         sodipodi:role="line"
         style="font-style:normal;font-variant:normal;font-weight:bold;font-stretch:normal;font-size:4.93888889px;font-family:'Latin Modern Sans';-inkscape-font-specification:'Latin Modern Sans, Bold';font-variant-ligatures:normal;font-variant-caps:normal;font-variant-numeric:normal;font-variant-east-asian:normal;fill:#5e5c64;stroke:none;stroke-width:0.7"
         x="145.23962"
         y="140.93735"
         id="tspan18">broker</tspan></text><text
       xml:space="preserve"
       style="font-size:4.93888889px;font-family:'Latin Modern Sans';-inkscape-font-specification:'Latin Modern Sans, Bold';fill:#c061cb;fill-opacity:1;fill-rule:evenodd;stroke:none;stroke-width:0.7;stroke-miterlimit:3.2;stroke-dasharray:none;stroke-dashoffset:0;stroke-opacity:1;font-weight:bold;font-style:normal;font-stretch:normal;font-variant:normal;font-variant-ligatures:normal;font-variant-caps:normal;font-variant-numeric:normal;font-variant-east-asian:normal"
       x="21.883642"
       y="181.49423"
       id="text17-4-0-1-1-1-7-7"><tspan
         sodipodi:role="line"
         style="font-style:normal;font-variant:normal;font-weight:bold;font-stretch:normal;font-size:4.93888889px;font-family:'Latin Modern Sans';-inkscape-font-specification:'Latin Modern Sans, Bold';font-variant-ligatures:normal;font-variant-caps:normal;font-variant-numeric:normal;font-variant-east-asian:normal;fill:#5e5c64;stroke:none;stroke-width:0.7"
         x="21.883642"
         y="181.49423"
         id="tspan18-6">data</tspan><tspan
         sodipodi:role="line"
         style="font-style:normal;font-variant:normal;font-weight:bold;font-stretch:normal;font-size:4.93888889px;font-family:'Latin Modern Sans';-inkscape-font-specification:'Latin Modern Sans, Bold';font-variant-ligatures:normal;font-variant-caps:normal;font-variant-numeric:normal;font-variant-east-asian:normal;fill:#5e5c64;stroke:none;stroke-width:0.7"
         x="21.883642"
         y="185.90396"
         id="tspan19">analysis</tspan></text><text
       xml:space="preserve"
       style="font-size:4.93888889px;font-family:'Latin Modern Sans';-inkscape-font-specification:'Latin Modern Sans, Bold';fill:#c061cb;fill-opacity:1;fill-rule:evenodd;stroke:none;stroke-width:0.7;stroke-miterlimit:3.2;stroke-dasharray:none;stroke-dashoffset:0;stroke-opacity:1;font-weight:bold;font-style:normal;font-stretch:normal;font-variant:normal;font-variant-ligatures:normal;font-variant-caps:normal;font-variant-numeric:normal;font-variant-east-asian:normal"
       x="73.716827"
       y="194.44592"
       id="text17-4-0-1-1-1-7-7-7"><tspan
         sodipodi:role="line"
         style="font-style:normal;font-variant:normal;font-weight:bold;font-stretch:normal;font-size:4.93888889px;font-family:'Latin Modern Sans';-inkscape-font-specification:'Latin Modern Sans, Bold';font-variant-ligatures:normal;font-variant-caps:normal;font-variant-numeric:normal;font-variant-east-asian:normal;fill:#5e5c64;stroke:none;stroke-width:0.7"
         x="73.716827"
         y="194.44592"
         id="tspan18-6-2">data</tspan><tspan
         sodipodi:role="line"
         style="font-style:normal;font-variant:normal;font-weight:bold;font-stretch:normal;font-size:4.93888889px;font-family:'Latin Modern Sans';-inkscape-font-specification:'Latin Modern Sans, Bold';font-variant-ligatures:normal;font-variant-caps:normal;font-variant-numeric:normal;font-variant-east-asian:normal;fill:#5e5c64;stroke:none;stroke-width:0.7"
         x="73.716827"
         y="198.85565"
         id="tspan19-2">storage</tspan></text><text
       xml:space="preserve"
       style="font-size:4.93888889px;font-family:'Latin Modern Sans';-inkscape-font-specification:'Latin Modern Sans, Bold';fill:#c061cb;fill-opacity:1;fill-rule:evenodd;stroke:none;stroke-width:0.7;stroke-miterlimit:3.2;stroke-dasharray:none;stroke-dashoffset:0;stroke-opacity:1;font-weight:bold;font-style:normal;font-stretch:normal;font-variant:normal;font-variant-ligatures:normal;font-variant-caps:normal;font-variant-numeric:normal;font-variant-east-asian:normal"
       x="134.52457"
       y="168.9816"
       id="text17-4-0-1-1-1-7-7-7-00"><tspan
         sodipodi:role="line"
         style="font-style:normal;font-variant:normal;font-weight:bold;font-stretch:normal;font-size:4.93888889px;font-family:'Latin Modern Sans';-inkscape-font-specification:'Latin Modern Sans, Bold';font-variant-ligatures:normal;font-variant-caps:normal;font-variant-numeric:normal;font-variant-east-asian:normal;fill:#5e5c64;stroke:none;stroke-width:0.7"
         x="134.52457"
         y="168.9816"
         id="tspan19-2-4">email &amp; sms</tspan><tspan
         sodipodi:role="line"
         style="font-style:normal;font-variant:normal;font-weight:bold;font-stretch:normal;font-size:4.93888889px;font-family:'Latin Modern Sans';-inkscape-font-specification:'Latin Modern Sans, Bold';font-variant-ligatures:normal;font-variant-caps:normal;font-variant-numeric:normal;font-variant-east-asian:normal;fill:#5e5c64;stroke:none;stroke-width:0.7"
         x="134.52457"
         y="173.39133"
         id="tspan20">alert</tspan></text><text
       xml:space="preserve"
       style="font-size:4.93888889px;font-family:'Latin Modern Sans';-inkscape-font-specification:'Latin Modern Sans, Bold';fill:#c061cb;fill-opacity:1;fill-rule:evenodd;stroke:none;stroke-width:0.7;stroke-miterlimit:3.2;stroke-dasharray:none;stroke-dashoffset:0;stroke-opacity:1;font-weight:bold;font-style:normal;font-stretch:normal;font-variant:normal;font-variant-ligatures:normal;font-variant-caps:normal;font-variant-numeric:normal;font-variant-east-asian:normal"
       x="113.38063"
       y="233.60022"
       id="text17-4-0-1-1-1-7-7-7-00-2"><tspan
         sodipodi:role="line"
         style="font-style:normal;font-variant:normal;font-weight:bold;font-stretch:normal;font-size:4.93888889px;font-family:'Latin Modern Sans';-inkscape-font-specification:'Latin Modern Sans, Bold';font-variant-ligatures:normal;font-variant-caps:normal;font-variant-numeric:normal;font-variant-east-asian:normal;fill:#5e5c64;stroke:none;stroke-width:0.7"
         x="113.38063"
         y="233.60022"
         id="tspan20-8">maintenance</tspan><tspan
         sodipodi:role="line"
         style="font-style:normal;font-variant:normal;font-weight:bold;font-stretch:normal;font-size:4.93888889px;font-family:'Latin Modern Sans';-inkscape-font-specification:'Latin Modern Sans, Bold';font-variant-ligatures:normal;font-variant-caps:normal;font-variant-numeric:normal;font-variant-east-asian:normal;fill:#5e5c64;stroke:none;stroke-width:0.7"
         x="113.38063"
         y="238.00995"
         id="tspan21">troubleshooting</tspan></text><text
       xml:space="preserve"
       style="font-size:4.93888889px;font-family:'Latin Modern Sans';-inkscape-font-specification:'Latin Modern Sans, Bold';fill:#c061cb;fill-opacity:1;fill-rule:evenodd;stroke:none;stroke-width:0.7;stroke-miterlimit:3.2;stroke-dasharray:none;stroke-dashoffset:0;stroke-opacity:1;font-weight:bold;font-style:normal;font-stretch:normal;font-variant:normal;font-variant-ligatures:normal;font-variant-caps:normal;font-variant-numeric:normal;font-variant-east-asian:normal"
       x="38.205719"
       y="204.66103"
       id="text17-4-0-1-1-1-7-7-7-0"><tspan
         sodipodi:role="line"
         style="font-style:normal;font-variant:normal;font-weight:bold;font-stretch:normal;font-size:4.93888889px;font-family:'Latin Modern Sans';-inkscape-font-specification:'Latin Modern Sans, Bold';font-variant-ligatures:normal;font-variant-caps:normal;font-variant-numeric:normal;font-variant-east-asian:normal;fill:#5e5c64;stroke:none;stroke-width:0.7"
         x="38.205719"
         y="204.66103"
         id="tspan19-2-1">IT personel</tspan></text><text
       xml:space="preserve"
       style="font-size:4.93888889px;font-family:'Latin Modern Sans';-inkscape-font-specification:'Latin Modern Sans, Bold';fill:#c061cb;fill-opacity:1;fill-rule:evenodd;stroke:none;stroke-width:0.7;stroke-miterlimit:3.2;stroke-dasharray:none;stroke-dashoffset:0;stroke-opacity:1;font-weight:bold;font-style:normal;font-stretch:normal;font-variant:normal;font-variant-ligatures:normal;font-variant-caps:normal;font-variant-numeric:normal;font-variant-east-asian:normal"
       x="115.74327"
       y="274.16357"
       id="text17-4-0-1-1-1-7-7-7-0-6"><tspan
         sodipodi:role="line"
         style="font-style:normal;font-variant:normal;font-weight:bold;font-stretch:normal;font-size:4.93888889px;font-family:'Latin Modern Sans';-inkscape-font-specification:'Latin Modern Sans, Bold';font-variant-ligatures:normal;font-variant-caps:normal;font-variant-numeric:normal;font-variant-east-asian:normal;fill:#5e5c64;stroke:none;stroke-width:0.7"
         x="115.74327"
         y="274.16357"
         id="tspan19-2-1-0">mobile service personel</tspan></text><text
       xml:space="preserve"
       style="font-style:normal;font-variant:normal;font-weight:bold;font-stretch:normal;font-size:4.93889px;font-family:'Latin Modern Sans';-inkscape-font-specification:'Latin Modern Sans, Bold';font-variant-ligatures:normal;font-variant-caps:normal;font-variant-numeric:normal;font-variant-east-asian:normal;fill:#c061cb;fill-opacity:1;fill-rule:evenodd;stroke:none;stroke-width:0.7;stroke-miterlimit:3.2;stroke-dasharray:none;stroke-dashoffset:0;stroke-opacity:1"
       x="95.350906"
       y="43.193405"
       id="text17-4-0-1-1-1-4"><tspan
         sodipodi:role="line"
         id="tspan17-8-9-3-3-7-2"
         style="font-style:normal;font-variant:normal;font-weight:bold;font-stretch:normal;font-size:4.93889px;font-family:'Latin Modern Sans';-inkscape-font-specification:'Latin Modern Sans, Bold';font-variant-ligatures:normal;font-variant-caps:normal;font-variant-numeric:normal;font-variant-east-asian:normal;fill:#5e5c64;stroke:none;stroke-width:0.7"
         x="95.350906"
         y="43.193405">LiPo battery</tspan></text></g></svg>
